<?xml version="1.0" standalone="no"?>
<!DOCTYPE svg PUBLIC "-//W3C//DTD SVG 20010904//EN"
 "http://www.w3.org/TR/2001/REC-SVG-20010904/DTD/svg10.dtd">
<svg version="1.0" xmlns="http://www.w3.org/2000/svg"
 width="512.000000pt" height="512.000000pt" viewBox="0 0 512.000000 512.000000"
 preserveAspectRatio="xMidYMid meet">
<metadata>
Created by potrace 1.11, written by Peter Selinger 2001-2013
</metadata>
<g transform="translate(0.000000,512.000000) scale(0.100000,-0.100000)"
fill="#000000" stroke="none">
<path d="M0 4385 l0 -615 2560 0 2560 0 0 615 0 615 -2560 0 -2560 0 0 -615z
m889 418 c70 -69 77 -89 91 -261 16 -186 -15 -362 -82 -467 -34 -54 -130 -128
-160 -123 -20 3 -22 7 -18 38 13 91 -4 698 -22 792 -5 31 -7 61 -4 67 4 6 36
11 72 11 l65 0 58 -57z m1789 -49 c29 -20 28 -38 -2 -30 -37 9 -54 -2 -72 -50
-25 -65 -15 -150 27 -228 90 -167 93 -174 97 -265 5 -108 -9 -164 -54 -209
-28 -28 -39 -33 -71 -30 -25 2 -39 8 -41 19 -2 12 5 14 32 11 48 -6 81 31 97
106 20 100 8 158 -62 299 -56 111 -64 134 -67 196 -5 84 11 139 51 173 34 28
36 29 65 8z m-1370 -54 c5 -121 34 -389 48 -449 13 -58 22 -147 27 -266 2 -34
-1 -40 -18 -40 -17 0 -21 9 -27 69 -11 117 -8 112 -85 119 -41 3 -70 1 -74 -5
-4 -6 -9 -35 -13 -65 -3 -30 -13 -71 -21 -91 -14 -31 -17 -34 -30 -21 -12 11
-13 22 -5 49 6 19 22 100 35 180 14 80 39 217 55 305 16 88 32 186 35 218 7
58 7 58 38 55 31 -3 32 -4 35 -58z m322 47 c66 -2 85 -6 85 -17 0 -11 -13 -15
-45 -16 l-45 -1 0 -79 c0 -43 7 -160 15 -259 20 -244 20 -410 0 -410 -12 0
-15 18 -17 90 -1 50 -10 219 -19 378 l-17 287 -36 0 c-45 0 -73 16 -52 29 7 5
21 7 30 5 9 -2 54 -5 101 -7z m404 -196 c9 -115 26 -251 37 -302 10 -51 19
-104 18 -118 -1 -14 2 -63 6 -108 7 -72 6 -83 -8 -83 -22 0 -24 5 -36 95 -6
44 -15 82 -19 86 -4 4 -37 9 -73 12 l-65 6 -12 -68 c-15 -89 -28 -121 -48
-121 -12 0 -15 7 -12 28 18 101 101 554 108 587 4 22 11 67 15 100 9 88 13 95
44 95 l27 0 18 -209z m1021 189 c0 -10 -14 -17 -45 -20 -91 -10 -113 -95 -114
-425 -1 -186 2 -225 15 -250 30 -53 54 -69 110 -67 55 1 60 -10 18 -35 -37
-23 -95 -9 -134 30 -46 46 -55 103 -55 345 0 289 22 381 98 422 43 23 107 23
107 0z m1439 14 c28 -11 5 -34 -34 -34 -44 0 -66 -17 -87 -68 -37 -89 -45
-543 -10 -613 22 -44 56 -64 108 -62 45 2 53 -16 15 -37 -61 -32 -152 25 -177
111 -17 60 -17 441 0 530 7 36 23 83 35 105 30 54 101 87 150 68z m-1174 -17
c40 -14 38 -33 -2 -31 l-28 2 0 -332 c0 -182 3 -341 6 -353 5 -20 13 -23 51
-23 37 0 44 -3 41 -17 -7 -36 -183 -38 -183 -3 0 8 10 16 21 18 12 2 24 11 25
20 2 9 3 169 1 355 l-3 337 -39 0 c-39 0 -56 11 -45 30 8 14 112 12 155 -3z
m313 -8 c20 -5 37 -16 37 -23 0 -18 -20 -25 -45 -15 -11 4 -32 8 -46 8 l-27 1
-4 -122 c-2 -68 -2 -129 0 -135 2 -7 20 -13 41 -13 49 0 70 -14 55 -37 -12
-19 -22 -20 -66 -8 l-28 7 0 -195 c0 -226 0 -227 81 -227 37 0 49 -4 49 -15 0
-8 -8 -15 -17 -16 -10 0 -42 -1 -71 -2 -95 -4 -87 -42 -84 403 2 216 5 398 9
403 5 9 46 4 116 -14z m242 -75 c17 -49 56 -150 87 -224 31 -75 66 -171 78
-215 32 -119 51 -175 59 -175 12 0 21 136 28 433 6 259 7 267 26 267 20 0 20
-4 13 -217 -7 -239 -23 -502 -32 -545 -4 -21 -11 -28 -30 -28 -18 0 -25 7 -30
28 -9 44 -39 136 -103 325 -84 243 -121 337 -133 337 -8 0 -9 -101 -5 -345 4
-290 3 -345 -8 -345 -8 0 -18 8 -23 18 -4 9 -8 179 -7 377 1 364 5 413 38 402
6 -2 25 -44 42 -93z m867 80 c45 -7 64 -26 44 -43 -10 -8 -21 -8 -40 -1 -15 5
-38 10 -52 10 l-24 0 0 -135 0 -135 34 0 c47 0 66 -9 66 -30 0 -23 -26 -33
-50 -20 -10 6 -26 10 -35 10 -14 0 -16 -21 -13 -200 3 -222 3 -221 68 -219 54
2 60 0 60 -16 0 -12 -16 -15 -85 -15 l-85 0 0 393 c0 421 0 422 50 413 14 -3
42 -8 62 -12z"/>
<path d="M743 4684 c4 -76 10 -259 14 -406 3 -148 9 -268 13 -268 4 0 27 18
50 41 91 89 136 249 127 459 -5 135 -15 179 -50 230 -32 47 -67 71 -117 77
l-43 6 6 -139z"/>
<path d="M1271 4638 c0 -4 -19 -96 -41 -204 -41 -202 -47 -249 -31 -258 4 -3
34 -8 65 -12 l56 -7 -6 104 c-6 94 -40 394 -43 377z"/>
<path d="M1942 4421 c-23 -119 -43 -221 -42 -228 0 -14 61 -33 105 -33 l30 0
-7 113 c-8 117 -34 356 -40 362 -2 1 -22 -95 -46 -214z"/>
<path d="M695 3498 c-2 -7 -8 -44 -13 -83 -15 -101 -81 -463 -92 -504 -9 -34
-6 -51 10 -51 10 0 25 46 35 105 4 22 10 42 15 45 4 3 31 3 58 2 56 -4 53 0
67 -104 4 -34 11 -48 22 -48 13 0 15 9 8 63 -3 34 -8 80 -10 102 -1 22 -10 78
-18 125 -8 47 -18 130 -22 185 -9 155 -14 175 -36 175 -11 0 -21 -6 -24 -12z
m35 -126 c0 -22 4 -74 10 -118 5 -43 11 -112 13 -153 l4 -73 -45 6 c-26 3 -51
11 -56 16 -7 7 1 69 24 185 33 169 50 216 50 137z"/>
<path d="M895 3500 c-6 -10 19 -20 50 -20 21 0 24 -5 29 -62 10 -111 26 -391
26 -465 0 -69 13 -102 27 -68 3 10 -2 119 -11 244 -9 124 -16 255 -16 290 l0
63 34 -6 c33 -6 62 9 34 18 -28 9 -168 14 -173 6z"/>
<path d="M1435 3408 c3 -57 8 -119 10 -139 7 -53 -11 -71 -65 -67 l-45 3 -1
135 c-1 165 -1 160 -17 160 -12 0 -15 -216 -7 -612 0 -10 7 -18 16 -18 15 0
16 15 9 155 l-7 155 56 -2 c31 -1 56 -2 56 -3 1 0 3 -67 6 -150 6 -138 13
-179 30 -162 4 3 3 150 -1 327 -7 307 -8 320 -27 320 -18 0 -19 -6 -13 -102z"/>
<path d="M1611 3478 c-48 -137 -33 -507 23 -593 37 -57 105 -41 139 33 20 44
22 62 22 257 0 205 -1 212 -25 259 -23 44 -30 50 -75 62 -70 18 -72 18 -84
-18z m100 -8 c10 -6 27 -25 36 -43 15 -27 17 -63 18 -247 0 -195 -2 -219 -20
-255 -17 -33 -25 -40 -50 -40 -25 0 -33 7 -48 37 -31 64 -42 210 -29 385 6 85
14 159 17 164 8 12 52 12 76 -1z"/>
<path d="M3628 3498 c-29 -27 -81 -48 -116 -48 -58 0 -112 -12 -112 -24 0 -6
-39 -27 -86 -46 -86 -35 -182 -107 -157 -117 9 -3 5 -14 -12 -37 -35 -45 -74
-156 -68 -189 3 -15 0 -39 -6 -55 -6 -15 -13 -60 -16 -101 -3 -41 -9 -79 -14
-85 -14 -18 -20 -63 -27 -203 -3 -82 -2 -133 4 -133 5 0 18 -41 28 -92 11 -53
27 -103 39 -118 39 -49 45 -67 34 -99 -14 -39 -5 -66 9 -31 9 22 11 18 11 -28
1 -33 5 -51 11 -47 11 7 13 -3 11 -54 -1 -32 0 -33 14 -15 14 18 14 17 15 -13
0 -17 -3 -33 -7 -36 -5 -2 -2 -2 5 -1 6 2 12 -4 13 -14 0 -10 3 -12 6 -4 2 6
9 12 14 12 6 0 5 -8 -1 -20 -6 -11 -8 -20 -5 -20 3 0 0 -10 -6 -22 -11 -21
-11 -22 4 -9 18 14 22 5 8 -18 -5 -8 -3 -24 6 -42 8 -16 11 -34 7 -41 -5 -9
-2 -9 9 1 10 8 20 11 24 7 9 -9 -29 -35 -42 -29 -5 2 -3 -1 6 -9 9 -7 14 -20
11 -28 -3 -9 6 -5 22 9 19 18 26 20 26 10 0 -8 -5 -20 -12 -27 -9 -9 -9 -15 0
-24 9 -9 15 -8 27 8 19 26 19 10 -1 -21 -8 -13 -29 -27 -45 -30 -16 -4 -29
-11 -29 -17 0 -5 -6 -8 -12 -5 -7 2 -29 -1 -48 -8 -19 -7 -57 -15 -83 -19 -47
-7 -163 -58 -182 -81 -5 -6 -18 -17 -28 -24 -15 -12 -17 -12 -11 3 12 30 -5
16 -37 -31 -18 -27 -49 -67 -68 -90 -20 -23 -49 -68 -66 -100 -16 -32 -35 -65
-41 -73 -7 -8 -15 -29 -18 -46 -5 -23 -2 -34 14 -49 18 -16 18 -20 6 -34 -8
-9 -24 -41 -36 -70 -22 -57 -61 -133 -149 -288 -28 -51 -56 -107 -62 -125 -6
-18 -14 -42 -18 -53 -49 -127 -61 -213 -32 -223 11 -4 13 2 8 24 -3 16 -2 47
3 69 13 63 68 205 98 255 15 25 69 130 121 233 64 130 96 185 104 180 46 -33
98 -64 130 -78 l38 -16 -7 60 c-3 33 -4 71 0 85 l6 26 226 0 c161 0 223 3 218
11 -4 8 0 8 15 0 15 -8 160 -11 506 -9 425 3 485 1 486 -12 1 -8 1 -34 -1 -57
-1 -31 4 -50 19 -69 25 -31 27 -69 6 -78 -8 -3 -15 -13 -15 -23 0 -15 2 -15
14 3 13 17 16 17 30 4 16 -16 12 -60 -6 -60 -10 0 -47 -77 -48 -97 0 -7 5 -13
10 -13 6 0 10 8 10 18 1 25 29 73 30 50 0 -10 5 -18 11 -18 6 0 22 -9 36 -20
14 -11 31 -20 37 -20 6 1 -2 8 -19 17 -30 17 -30 17 -6 23 21 5 22 7 7 19 -9
7 -16 23 -16 35 0 12 -6 28 -12 36 -11 12 -10 12 5 1 25 -20 22 3 -5 42 -24
33 -34 77 -17 77 5 0 9 -9 9 -21 0 -11 5 -17 10 -14 16 10 12 65 -5 72 -9 3
-25 -3 -35 -12 -13 -11 -20 -14 -20 -6 0 14 63 81 75 81 5 0 0 -7 -11 -15 -19
-14 -19 -14 1 -9 15 4 24 -1 32 -18 7 -13 40 -81 75 -152 102 -209 129 -259
134 -253 6 5 -33 106 -48 124 -5 7 -24 43 -42 80 -18 37 -40 74 -49 82 -9 7
-15 17 -12 21 3 5 -8 38 -25 74 -29 65 -29 67 -11 83 24 20 17 41 -36 114 -21
29 -47 67 -58 84 -11 17 -29 46 -40 63 -11 17 -30 34 -42 37 -12 3 -24 14 -28
24 -8 25 -64 68 -101 77 -16 4 -33 10 -39 14 -16 12 -56 21 -128 30 -67 8 -98
22 -83 37 4 4 11 1 15 -6 7 -10 10 -9 16 8 3 12 10 19 15 16 4 -3 8 1 7 8 -1
40 4 61 12 49 6 -11 10 -10 16 5 5 10 7 24 6 31 -1 6 7 12 17 12 23 0 35 42
21 77 -8 23 5 43 14 21 3 -7 6 3 8 22 2 31 3 29 9 -15 6 -43 7 -45 9 -15 1 22
4 30 9 22 6 -8 13 7 22 43 7 31 17 58 22 61 5 3 4 12 -2 19 -9 11 -8 20 4 37
9 13 20 21 24 18 6 -5 13 46 12 95 0 11 5 40 12 64 l11 44 19 -23 c18 -23 18
-22 15 59 -2 45 0 84 4 87 4 2 15 28 24 57 9 28 20 61 25 72 5 11 11 27 13 35
10 30 7 -125 -4 -189 -8 -46 -18 -71 -33 -83 -18 -15 -18 -18 -4 -18 19 0 40
33 45 70 2 24 14 95 32 205 5 28 12 60 16 71 4 12 2 25 -4 28 -6 4 -11 16 -11
27 0 11 4 18 9 14 18 -11 21 13 7 59 -12 41 -12 45 0 35 9 -7 14 -8 14 -1 0 6
-4 14 -10 17 -5 3 -10 18 -10 33 0 25 1 25 15 6 14 -17 15 -14 9 36 -4 30 -13
67 -20 82 -17 32 -18 41 -4 33 15 -9 12 28 -6 70 -8 20 -13 40 -10 43 3 3 -3
21 -13 41 -10 20 -26 54 -37 75 -10 22 -26 46 -34 54 -8 8 -15 22 -17 31 -1 9
-15 28 -31 42 -15 14 -26 31 -24 37 2 7 -2 10 -11 6 -17 -6 -80 53 -71 67 7
12 -53 62 -80 65 -11 2 -32 5 -46 8 -14 3 -58 11 -97 18 -40 7 -73 16 -73 20
0 4 6 9 13 9 20 2 -76 17 -115 18 -20 1 -43 -5 -50 -11z m137 -152 c-4 -20
-11 -36 -16 -36 -12 0 -11 10 2 49 14 41 22 34 14 -13z m-325 -22 c0 -19 -4
-33 -8 -30 -8 5 -4 66 4 66 2 0 4 -16 4 -36z m159 -31 c-20 -58 -49 -104 -34
-53 12 38 44 110 49 110 3 0 -4 -26 -15 -57z m371 13 c0 -3 -4 -8 -10 -11 -5
-3 -10 -1 -10 4 0 6 5 11 10 11 6 0 10 -2 10 -4z m30 -6 c0 -5 -5 -10 -11 -10
-5 0 -7 5 -4 10 3 6 8 10 11 10 2 0 4 -4 4 -10z m-319 -23 c-10 -9 -11 -8 -5
6 3 10 9 15 12 12 3 -3 0 -11 -7 -18z m-201 9 c0 -3 -4 -8 -10 -11 -5 -3 -10
-1 -10 4 0 6 5 11 10 11 6 0 10 -2 10 -4z m243 -31 c-9 -19 -18 -33 -21 -31
-4 5 26 66 33 66 3 0 -3 -16 -12 -35z m212 25 c-3 -5 -11 -10 -16 -10 -6 0 -7
5 -4 10 3 6 11 10 16 10 6 0 7 -4 4 -10z m75 -5 c0 -2 -10 -10 -22 -16 -21
-11 -22 -11 -9 4 13 16 31 23 31 12z m-705 -15 c3 -5 2 -10 -4 -10 -5 0 -13 5
-16 10 -3 6 -2 10 4 10 5 0 13 -4 16 -10z m509 -5 c-4 -8 -10 -15 -15 -15 -4
0 -6 7 -3 15 4 8 10 15 15 15 4 0 6 -7 3 -15z m263 -10 c-16 -14 -32 -23 -37
-20 -5 3 -11 1 -15 -5 -3 -5 -11 -10 -17 -10 -6 0 -1 11 12 25 25 26 49 35 34
12 -5 -7 -2 -5 6 5 8 9 22 17 30 17 10 0 5 -8 -13 -24z m93 5 c0 -5 -2 -10 -4
-10 -3 0 -8 5 -11 10 -3 6 -1 10 4 10 6 0 11 -4 11 -10z m-806 -16 c3 -8 2
-12 -4 -9 -6 3 -10 10 -10 16 0 14 7 11 14 -7z m517 -16 c-11 -18 -28 -48 -37
-67 -18 -39 -29 -36 -14 3 10 28 58 96 67 96 3 0 -5 -15 -16 -32z m38 -15 c-5
-17 -19 -33 -30 -36 -20 -6 -19 -2 14 46 24 35 31 30 16 -10z m-110 -7 c-7
-14 -16 -26 -21 -26 -5 0 -1 13 8 30 21 35 30 33 13 -4z m211 1 c0 -2 -12 -14
-27 -28 l-28 -24 24 28 c23 25 31 32 31 24z m-290 -11 c0 -3 -4 -8 -10 -11 -5
-3 -10 -1 -10 4 0 6 5 11 10 11 6 0 10 -2 10 -4z m40 -5 c0 -6 -4 -13 -10 -16
-5 -3 -10 1 -10 9 0 9 5 16 10 16 6 0 10 -4 10 -9z m319 -14 c-2 -1 -15 -11
-28 -22 l-24 -20 12 23 c6 12 19 22 28 22 9 0 14 -1 12 -3z m146 -17 c10 -11
13 -20 7 -20 -6 0 -16 9 -22 20 -6 11 -9 20 -7 20 2 0 12 -9 22 -20z m-65 6
c0 -2 -7 -7 -16 -10 -8 -3 -12 -2 -9 4 6 10 25 14 25 6z m-267 -21 c-3 -9 -8
-14 -10 -11 -3 3 -2 9 2 15 9 16 15 13 8 -4z m-408 -35 c8 -25 25 -16 26 13
l0 22 11 -23 c13 -26 29 -24 44 6 11 22 24 20 24 -5 0 -8 -5 -11 -11 -7 -7 4
-10 1 -7 -7 3 -8 16 -14 29 -14 13 0 31 -9 40 -19 16 -19 17 -19 44 -2 15 10
29 15 33 12 3 -3 0 -6 -6 -6 -7 0 -12 -5 -12 -11 0 -6 7 -9 14 -6 10 4 13 1 9
-9 -7 -18 6 -18 31 1 11 8 24 15 30 15 5 0 1 -7 -10 -15 -16 -13 -17 -16 -4
-25 19 -13 27 -13 35 1 5 6 11 4 19 -6 11 -15 15 -14 46 11 32 28 69 36 135
33 17 -1 46 -2 65 -3 39 0 80 -30 80 -58 0 -10 4 -18 9 -18 5 0 9 -31 10 -69
0 -37 5 -80 10 -94 5 -14 8 -27 5 -30 -9 -9 -12 -128 -4 -163 7 -31 -9 -126
-23 -141 -3 -2 -25 1 -48 8 -24 6 -80 17 -124 24 -70 11 -77 14 -55 23 18 7
34 6 59 -4 18 -8 51 -14 72 -14 32 0 39 3 39 20 0 23 -28 40 -64 40 -14 0 -26
5 -26 10 0 6 -19 10 -41 10 -34 0 -41 -3 -37 -17 4 -15 -3 -18 -41 -19 -59 -1
-76 -6 -101 -29 -30 -27 -126 -32 -195 -10 -30 9 -55 21 -55 26 0 5 -5 9 -11
9 -6 0 -22 9 -36 20 -14 11 -36 20 -49 20 -15 0 -22 5 -18 13 3 9 -9 18 -33
25 -21 6 -39 8 -41 4 -1 -4 -20 -6 -41 -4 -32 3 -41 0 -51 -17 -6 -12 -9 -25
-6 -30 8 -13 63 -19 106 -11 28 5 42 2 59 -11 22 -18 19 -18 -122 -18 -136 0
-145 1 -150 19 -3 11 -1 22 3 25 5 3 9 23 8 44 0 21 7 49 16 63 9 13 13 28 9
31 -3 4 2 16 12 27 10 11 15 23 11 27 -4 4 -11 1 -16 -7 -6 -8 -10 -10 -10 -4
0 5 4 14 9 20 5 5 11 20 13 34 2 14 9 24 15 23 18 -4 27 59 20 137 -6 67 -5
69 29 104 19 20 40 36 47 36 7 0 -1 -11 -18 -25 -34 -27 -27 -33 10 -9 33 21
135 42 157 32 9 -4 20 -17 23 -28z m-285 6 c0 -3 -4 -8 -10 -11 -5 -3 -10 -1
-10 4 0 6 5 11 10 11 6 0 10 -2 10 -4z m-35 -36 c3 -6 -1 -7 -9 -4 -18 7 -21
14 -7 14 6 0 13 -4 16 -10z m1065 -45 c11 -13 10 -14 -4 -9 -9 3 -16 10 -16
15 0 13 6 11 20 -6z m-1045 -5 c-3 -5 -12 -10 -18 -10 -7 0 -6 4 3 10 19 12
23 12 15 0z m1010 -20 c3 -5 -1 -10 -10 -10 -9 0 -13 5 -10 10 3 6 8 10 10 10
2 0 7 -4 10 -10z m-971 -35 c-4 -8 -8 -15 -10 -15 -2 0 -4 7 -4 15 0 8 4 15
10 15 5 0 7 -7 4 -15z m1070 -17 c-10 -16 -22 -7 -17 13 4 15 8 17 14 8 4 -7
5 -17 3 -21z m-1074 -12 c0 -2 -8 -10 -17 -17 -16 -13 -17 -12 -4 4 13 16 21
21 21 13z m1070 -35 c0 -6 -4 -13 -10 -16 -5 -3 -10 1 -10 9 0 9 5 16 10 16 6
0 10 -4 10 -9z m-22 -97 c-4 -3 -12 5 -18 18 -12 22 -12 22 6 6 10 -10 15 -20
12 -24z m48 -9 c-6 -24 -36 -36 -36 -15 0 6 4 10 9 10 5 0 13 9 16 21 9 29 19
16 11 -16z m-56 -30 c0 -5 -5 -3 -10 5 -5 8 -10 20 -10 25 0 6 5 3 10 -5 5 -8
10 -19 10 -25z m-1100 21 c0 -2 -8 -10 -17 -17 -16 -13 -17 -12 -4 4 13 16 21
21 21 13z m1084 -32 c3 -8 2 -12 -4 -9 -6 3 -10 10 -10 16 0 14 7 11 14 -7z
m-14 -64 c0 -13 -1 -13 -10 0 -5 8 -10 22 -10 30 0 13 1 13 10 0 5 -8 10 -22
10 -30z m65 -20 c3 -5 1 -10 -4 -10 -6 0 -11 5 -11 10 0 6 2 10 4 10 3 0 8 -4
11 -10z m-1185 -24 c0 -2 -8 -10 -17 -17 -16 -13 -17 -12 -4 4 13 16 21 21 21
13z m1153 -31 c-7 -21 -13 -19 -13 6 0 11 4 18 10 14 5 -3 7 -12 3 -20z
m-1203 -52 c0 -17 5 -35 10 -38 6 -3 10 1 10 9 0 8 4 17 9 20 11 7 9 -74 -3
-92 -12 -19 1 -45 20 -38 12 5 14 1 8 -17 -4 -12 -8 -48 -8 -79 -1 -31 -5 -60
-9 -64 -13 -13 -35 30 -42 82 -3 28 -13 73 -21 99 -15 50 -18 123 -8 163 6 21
7 21 20 5 7 -10 14 -32 14 -50z m80 42 c-7 -9 -15 -13 -17 -11 -7 7 7 26 19
26 6 0 6 -6 -2 -15z m1100 -73 c0 -28 -3 -33 -10 -22 -13 20 -13 73 0 65 6 -3
10 -23 10 -43z m-235 28 c3 -5 1 -10 -4 -10 -6 0 -11 5 -11 10 0 6 2 10 4 10
3 0 8 -4 11 -10z m-710 -54 c-18 -13 -18 -15 -2 -39 15 -24 15 -25 -3 -20 -30
8 -24 -12 8 -27 29 -14 150 -22 195 -13 38 7 28 29 -12 25 -27 -2 -31 1 -31
23 0 30 4 31 37 5 14 -11 30 -20 34 -20 17 0 9 17 -15 30 -19 10 -22 15 -13
25 7 8 14 9 18 3 3 -5 12 -8 20 -6 8 2 22 -13 32 -34 16 -34 17 -46 8 -109 -7
-39 -19 -85 -27 -101 l-16 -31 -112 7 c-132 8 -182 20 -196 46 -6 11 -14 64
-17 118 -7 110 -2 120 65 132 45 8 52 4 27 -14z m195 2 c0 -6 -27 -8 -72 -5
-40 2 -65 2 -55 0 12 -3 16 -10 13 -20 -3 -8 -6 -21 -6 -29 0 -11 -5 -11 -27
-2 -53 23 -56 29 -23 52 26 17 43 20 101 18 38 -2 69 -8 69 -14z m-360 -2 c0
-3 -4 -8 -10 -11 -5 -3 -10 -1 -10 4 0 6 5 11 10 11 6 0 10 -2 10 -4z m823
-26 c21 0 36 -4 32 -9 -6 -11 -100 -3 -130 11 -14 6 -8 7 20 3 22 -2 57 -5 78
-5z m-842 -27 c-12 -20 -14 -14 -5 12 4 9 9 14 11 11 3 -2 0 -13 -6 -23z m729
17 c13 -8 11 -11 -7 -16 -13 -4 -23 -13 -23 -20 0 -8 -4 -14 -10 -14 -5 0 -10
-4 -10 -9 0 -22 131 -38 199 -25 40 8 61 42 37 60 -25 18 -3 27 44 19 25 -4
47 -16 60 -32 22 -28 28 -79 9 -67 -8 5 -10 -3 -5 -28 5 -27 2 -40 -14 -58
-13 -15 -17 -27 -11 -33 11 -11 -3 -53 -26 -79 -19 -21 -62 -23 -149 -7 -143
25 -158 43 -159 185 0 77 3 95 19 113 22 24 25 25 46 11z m402 -2 c-7 -7 -12
-20 -12 -30 0 -10 -4 -18 -10 -18 -5 0 -10 3 -10 8 0 11 30 52 38 52 3 0 1 -5
-6 -12z m-812 -18 c0 -5 -5 -10 -11 -10 -5 0 -7 5 -4 10 3 6 8 10 11 10 2 0 4
-4 4 -10z m299 -4 c7 -8 9 -25 6 -39 -4 -13 1 -65 10 -116 24 -131 43 -143
261 -167 41 -4 61 -11 61 -20 0 -7 -4 -11 -8 -9 -10 7 -30 -20 -27 -36 2 -8
-4 -13 -14 -11 -9 1 -19 -2 -23 -8 -3 -5 -1 -10 5 -10 7 0 9 -8 4 -22 -15 -47
-64 -65 -64 -23 0 26 0 27 -40 29 -14 1 -30 5 -37 9 -14 9 -27 -9 -17 -25 4
-7 3 -8 -4 -4 -7 4 -12 15 -13 24 0 14 -2 13 -9 -3 -8 -19 -9 -19 -9 3 -1 20
-9 26 -28 20 -5 -1 -7 -9 -5 -18 1 -8 -4 -4 -11 9 -9 15 -17 20 -21 12 -4 -6
-4 -16 0 -23 4 -7 3 -8 -4 -4 -7 4 -12 14 -12 22 0 8 -4 14 -10 14 -5 0 -10
-5 -10 -10 0 -6 -3 -9 -7 -9 -36 6 -50 -2 -45 -26 2 -14 8 -25 13 -25 5 0 9
-6 9 -14 0 -10 14 -13 53 -11 28 2 54 4 57 5 3 1 9 2 14 1 4 -1 14 4 22 10 11
9 14 8 14 -3 0 -16 -133 -49 -195 -47 -46 1 -126 27 -87 28 44 2 58 17 54 56
-3 27 -8 35 -20 30 -12 -4 -13 -3 -2 10 10 12 10 15 -4 15 -10 0 -27 -5 -38
-11 -15 -8 -19 -8 -14 0 4 7 -1 12 -13 12 -29 2 -34 3 -47 11 -6 4 -19 1 -30
-6 -10 -8 -24 -12 -31 -9 -7 3 -13 0 -13 -6 0 -7 -8 -11 -17 -9 -10 2 -22 -7
-30 -22 -7 -14 -13 -19 -13 -11 0 9 -8 12 -25 9 -13 -3 -22 -2 -20 2 3 5 -2
10 -10 14 -8 3 -15 16 -15 29 0 14 -7 30 -16 38 -13 11 -14 9 -8 -17 6 -26 5
-28 -10 -14 -10 10 -17 38 -19 80 -2 36 -8 74 -13 85 -7 17 -3 16 24 -7 40
-33 79 -41 202 -42 74 -1 96 -4 102 -16 6 -13 7 -12 7 1 1 9 8 20 16 23 9 3
15 11 13 18 -3 16 32 108 42 108 4 0 12 17 18 39 13 43 15 77 3 46 -8 -19 -8
-19 -15 3 -5 14 -3 29 4 37 16 19 94 20 109 1z m147 -12 c-3 -9 -6 -18 -6 -20
0 -2 -9 -4 -20 -4 -25 0 -26 16 -2 29 25 15 35 13 28 -5z m123 2 c26 -15 21
-20 -25 -30 -30 -7 -31 -5 -27 18 6 29 17 31 52 12z m-616 -13 c-7 -2 -19 -2
-25 0 -7 3 -2 5 12 5 14 0 19 -2 13 -5z m-245 -43 c-7 -11 -15 -15 -17 -9 -2
6 3 15 10 20 20 12 21 11 7 -11z m54 -154 c-5 -43 -22 -38 -23 7 0 32 0 32
-12 7 l-11 -25 -4 28 c-2 15 -7 27 -11 27 -5 0 1 28 12 63 l21 62 16 -67 c9
-36 14 -83 12 -102z m960 12 c-8 -8 -9 -4 -5 13 4 13 8 18 11 10 2 -7 -1 -18
-6 -23z m35 -5 c-3 -10 -5 -4 -5 12 0 17 2 24 5 18 2 -7 2 -21 0 -30z m-27
-23 c0 -5 -2 -10 -4 -10 -3 0 -8 5 -11 10 -3 6 -1 10 4 10 6 0 11 -4 11 -10z
m-130 -200 c0 -5 -5 -10 -11 -10 -5 0 -7 5 -4 10 3 6 8 10 11 10 2 0 4 -4 4
-10z m-591 -31 c-8 -5 -9 -9 -4 -9 6 0 4 -4 -3 -9 -21 -13 59 -76 123 -96 75
-23 166 -21 220 5 64 31 95 58 88 76 -4 12 -1 15 13 12 13 -2 20 -13 22 -37 2
-21 0 -31 -7 -26 -7 3 -11 -2 -11 -14 0 -25 -19 -38 -32 -20 -6 10 -7 6 -3
-11 6 -20 5 -23 -6 -12 -15 14 -43 16 -34 2 3 -5 0 -10 -9 -10 -8 0 -17 6 -20
13 -4 6 -4 -3 -1 -22 5 -33 4 -33 -13 -18 -26 24 -30 21 -26 -15 l2 -33 -12
29 c-9 19 -16 25 -21 17 -5 -9 -12 -8 -27 5 -16 15 -23 16 -39 6 -15 -10 -19
-10 -20 0 0 10 -2 10 -6 1 -2 -8 -22 -13 -45 -13 -36 0 -39 2 -33 23 6 21 6
21 -9 3 -12 -14 -16 -16 -16 -5 0 12 -2 12 -10 -1 -8 -12 -10 -8 -11 15 -1 29
-1 30 -9 5 l-8 -25 -1 23 c-1 15 -9 26 -21 29 -11 3 -20 10 -20 17 -1 6 -9 -5
-20 -24 -11 -21 -19 -28 -20 -18 0 9 5 20 10 23 6 3 10 11 10 17 0 6 -7 5 -17
-3 -14 -12 -16 -12 -8 0 4 8 8 28 7 45 -1 22 2 26 8 16 8 -13 10 -12 10 3 0
33 -25 16 -47 -31 -16 -33 -22 -40 -23 -25 0 12 5 25 10 28 6 4 8 10 5 15 -3
5 -1 12 5 15 8 5 7 11 -1 21 -13 16 -14 16 28 18 18 1 35 5 39 9 4 3 11 4 16
0 6 -3 4 -9 -3 -14z m48 15 c-3 -3 -12 -4 -19 -1 -8 3 -5 6 6 6 11 1 17 -2 13
-5z m420 -26 c-3 -8 -6 -5 -6 6 -1 11 2 17 5 13 3 -3 4 -12 1 -19z m-393 -3
c14 -11 16 -15 5 -15 -26 0 -59 12 -59 21 0 14 33 10 54 -6z m40 -42 c56 -18
198 -22 218 -6 19 15 68 25 68 14 0 -10 -24 -25 -90 -56 -67 -32 -225 -1 -275
55 -16 18 -16 18 7 13 12 -3 45 -12 72 -20z m433 -15 c-3 -8 -6 -5 -6 6 -1 11
2 17 5 13 3 -3 4 -12 1 -19z m-70 -20 c-3 -7 -5 -2 -5 12 0 14 2 19 5 13 2 -7
2 -19 0 -25z m53 -22 c0 -3 -4 -8 -10 -11 -5 -3 -10 -1 -10 4 0 6 5 11 10 11
6 0 10 -2 10 -4z m64 -11 c-4 -8 -7 -15 -9 -15 -2 0 -5 7 -9 15 -3 9 0 15 9
15 9 0 12 -6 9 -15z m-603 -22 c-12 -20 -14 -14 -5 12 4 9 9 14 11 11 3 -2 0
-13 -6 -23z m209 -81 c0 -7 -4 -10 -10 -7 -5 3 -10 16 -10 28 0 18 2 19 10 7
5 -8 10 -21 10 -28z m46 -9 c-7 -7 -26 7 -26 19 0 6 6 6 15 -2 9 -7 13 -15 11
-17z m334 6 c0 -5 -4 -9 -10 -9 -5 0 -10 7 -10 16 0 8 5 12 10 9 6 -3 10 -10
10 -16z m-669 -52 c-10 -9 -11 -8 -5 6 3 10 9 15 12 12 3 -3 0 -11 -7 -18z
m140 -10 c-10 -9 -11 -8 -5 6 3 10 9 15 12 12 3 -3 0 -11 -7 -18z m319 19 c0
-3 -4 -8 -10 -11 -5 -3 -10 -1 -10 4 0 6 5 11 10 11 6 0 10 -2 10 -4z m-10
-40 c0 -3 -4 -8 -10 -11 -5 -3 -10 -1 -10 4 0 6 5 11 10 11 6 0 10 -2 10 -4z
m-205 -15 c3 -5 1 -12 -5 -16 -5 -3 -10 1 -10 9 0 18 6 21 15 7z m-259 -28
c-10 -10 -19 5 -10 18 6 11 8 11 12 0 2 -7 1 -15 -2 -18z m351 5 c-3 -8 -6 -5
-6 6 -1 11 2 17 5 13 3 -3 4 -12 1 -19z m150 -10 c-3 -7 -5 -2 -5 12 0 14 2
19 5 13 2 -7 2 -19 0 -25z m43 11 c0 -6 -4 -7 -10 -4 -5 3 -10 11 -10 16 0 6
5 7 10 4 6 -3 10 -11 10 -16z m31 -32 c-8 -8 -11 -3 -11 19 1 25 2 27 11 11 8
-14 8 -22 0 -30z m-628 -9 c3 -9 -8 -13 -36 -14 l-41 0 29 12 c38 17 42 17 48
2z m27 -3 c0 -8 -2 -15 -4 -15 -2 0 -6 7 -10 15 -3 8 -1 15 4 15 6 0 10 -7 10
-15z m-185 -38 c-27 -5 -52 -13 -55 -16 -3 -3 -15 -6 -28 -7 -12 0 -19 3 -14
8 10 10 86 26 122 26 14 0 3 -5 -25 -11z m796 -25 c-7 -2 -18 1 -23 6 -8 8 -4
9 13 5 13 -4 18 -8 10 -11z m129 -19 c14 -8 16 -11 5 -7 -11 4 -42 9 -69 12
-31 3 -44 7 -35 12 16 11 66 2 99 -17z m-1060 -3 c0 -5 -5 -10 -11 -10 -5 0
-7 5 -4 10 3 6 8 10 11 10 2 0 4 -4 4 -10z m-38 -17 c-6 -2 -9 -10 -6 -15 4
-7 2 -8 -5 -4 -13 9 -5 26 12 25 9 0 8 -2 -1 -6z m1221 -18 c20 -14 37 -31 36
-38 0 -9 -2 -9 -6 1 -9 23 -43 35 -61 20 -15 -12 -16 -11 -3 5 14 18 8 22 -29
18 -13 -2 -13 -1 0 8 20 14 20 14 63 -14z m-1273 -9 c0 -2 -7 -7 -16 -10 -8
-3 -12 -2 -9 4 6 10 25 14 25 6z m-40 -29 c0 -2 -17 -19 -37 -38 l-38 -34 34
38 c33 34 41 42 41 34z m1394 -46 c-2 -3 -12 3 -22 13 -16 17 -16 18 5 5 12
-7 20 -15 17 -18z m-614 -11 c0 -5 -5 -10 -11 -10 -5 0 -7 5 -4 10 3 6 8 10
11 10 2 0 4 -4 4 -10z m-577 -37 c-7 -2 -19 -2 -25 0 -7 3 -2 5 12 5 14 0 19
-2 13 -5z m1266 -48 c0 -5 -6 1 -14 15 -8 14 -14 30 -14 35 0 6 6 -1 14 -15 8
-14 14 -29 14 -35z m-1262 19 c-3 -3 -12 -4 -19 -1 -8 3 -5 6 6 6 11 1 17 -2
13 -5z m708 -4 c-11 -5 -27 -9 -35 -9 -9 0 -8 4 5 9 11 5 27 9 35 9 9 0 8 -4
-5 -9z m-1042 -20 c-3 -11 -9 -20 -14 -20 -5 0 -10 -10 -10 -22 -1 -18 -2 -19
-6 -5 -3 10 3 29 11 42 20 30 26 32 19 5z m1132 0 c3 -6 -1 -7 -9 -4 -18 7
-21 14 -7 14 6 0 13 -4 16 -10z m-600 -10 c3 -6 -1 -7 -9 -4 -18 7 -21 14 -7
14 6 0 13 -4 16 -10z m-205 -15 c0 -2 -9 -3 -19 -2 -11 0 -18 5 -15 9 4 6 34
0 34 -7z m680 5 c-8 -5 -19 -10 -25 -10 -5 0 -3 5 5 10 8 5 20 10 25 10 6 0 3
-5 -5 -10z m-458 -65 c11 -21 8 -18 -32 30 -24 29 -24 29 -2 10 13 -11 28 -29
34 -40z m1102 15 c10 -13 9 -13 -6 -1 -10 7 -18 21 -17 30 0 13 1 14 6 1 3 -8
11 -22 17 -30z m-1052 13 c-6 -2 -9 -10 -5 -16 4 -7 -1 -6 -10 2 -22 18 -21
21 6 20 12 0 16 -3 9 -6z m-279 -10 c-7 -2 -19 -2 -25 0 -7 3 -2 5 12 5 14 0
19 -2 13 -5z m1378 -96 c-8 -8 -14 -8 -23 2 -11 10 -9 11 7 5 16 -6 18 -5 8 7
-19 20 -16 33 3 14 13 -12 14 -19 5 -28z m-1754 1 c-3 -8 -6 -5 -6 6 -1 11 2
17 5 13 3 -3 4 -12 1 -19z"/>
<path d="M3997 2343 c-4 -3 -24 -9 -44 -13 l-38 -8 37 -1 c41 -1 68 7 68 20 0
11 -14 12 -23 2z"/>
<path d="M3707 2411 c-12 -56 -8 -88 14 -112 18 -21 20 -21 13 -4 -4 11 -10
49 -13 85 -5 58 -7 62 -14 31z"/>
<path d="M3756 2170 c6 -26 3 -31 -27 -44 -29 -12 -30 -15 -11 -15 27 -1 66
35 58 56 -3 8 -6 19 -6 24 0 5 -4 9 -10 9 -5 0 -7 -13 -4 -30z"/>
<path d="M3550 2140 c0 -5 7 -10 16 -10 8 0 12 5 9 10 -3 6 -10 10 -16 10 -5
0 -9 -4 -9 -10z"/>
<path d="M3658 2093 c-10 -2 -18 -9 -18 -14 0 -14 26 -11 40 6 13 15 9 16 -22
8z"/>
<path d="M3636 1973 c-12 -12 -6 -33 9 -33 8 0 15 6 15 14 0 17 -14 28 -24 19z"/>
<path d="M1930 3428 c0 -40 -7 -180 -16 -310 -9 -131 -14 -245 -10 -253 3 -8
12 -15 19 -15 11 0 15 47 21 243 7 240 16 334 28 292 32 -111 70 -259 88 -345
23 -108 33 -131 49 -114 6 5 32 97 60 204 78 308 76 305 84 105 4 -92 7 -214
7 -269 0 -113 6 -146 26 -146 11 0 13 19 8 103 -3 56 -9 208 -12 337 -6 210
-9 235 -24 238 -13 2 -20 -8 -27 -40 -29 -115 -86 -330 -104 -388 l-20 -65
-17 75 c-26 109 -64 238 -89 293 -11 27 -24 66 -27 88 -5 29 -11 39 -25 39
-17 0 -19 -8 -19 -72z"/>
<path d="M2409 3299 c-2 -381 -2 -426 5 -438 8 -12 83 -15 110 -5 28 11 17 24
-18 24 -68 0 -66 -5 -66 175 l0 164 34 -6 c21 -3 36 -1 41 7 10 16 -15 31 -41
25 -36 -8 -42 13 -36 123 l5 103 31 -7 c47 -10 58 -10 63 3 5 13 -12 19 -79
29 l-48 6 -1 -203z"/>
<path d="M636 1769 c-20 -40 -36 -85 -36 -101 0 -38 26 -83 58 -100 14 -7 50
-37 81 -65 31 -29 59 -53 63 -53 21 0 4 -17 -27 -29 -57 -20 -127 -133 -146
-237 -18 -96 23 -226 98 -313 l33 -40 -118 -118 c-93 -93 -125 -133 -152 -188
-36 -72 -45 -144 -27 -207 l7 -28 -190 0 c-120 0 -190 -4 -190 -10 0 -5 12
-10 28 -10 15 0 194 0 397 0 204 0 800 -7 1325 -15 525 -8 971 -14 990 -14
l35 1 -40 8 c-22 5 -110 9 -195 10 -85 1 -159 5 -165 8 -12 8 -118 9 -125 2
-3 -3 -137 -3 -298 -2 l-293 4 1 96 c2 151 -29 222 -146 331 -43 40 -90 79
-106 87 l-29 15 54 49 c78 72 102 129 102 251 0 78 -3 101 -17 116 -23 25 -23
33 0 33 10 0 47 22 82 49 46 36 68 47 76 40 9 -7 27 -6 56 1 58 16 88 36 88
61 0 63 -143 228 -215 248 -86 24 -147 9 -224 -52 l-55 -44 -34 23 c-85 58
-232 83 -292 50 -24 -14 -25 -13 -53 45 -40 84 -81 111 -216 143 -60 14 -119
26 -130 26 -14 0 -29 -18 -55 -71z m171 36 c58 -14 117 -32 132 -39 57 -31
111 -112 111 -170 0 -14 5 -28 12 -32 8 -5 9 0 5 15 -5 19 0 25 28 37 48 20
136 17 196 -5 62 -24 119 -61 119 -78 0 -7 19 2 44 20 24 17 52 38 62 45 16
11 16 12 2 8 -35 -10 -17 5 28 26 36 15 57 18 93 13 52 -7 123 -38 143 -62 12
-15 11 -15 -12 -3 -25 13 -25 13 -6 -8 10 -12 23 -19 29 -15 6 3 7 1 3 -5 -4
-6 5 -19 19 -28 14 -9 33 -31 42 -47 8 -17 22 -37 30 -45 18 -18 13 -31 -18
-54 -50 -37 -90 -34 -167 12 -84 49 -140 60 -177 36 -21 -14 -29 -15 -41 -5
-24 20 -28 2 -6 -26 l21 -26 27 30 c15 17 35 31 43 31 22 0 161 -67 161 -78 0
-4 -23 -25 -51 -47 -43 -33 -61 -40 -110 -43 -55 -4 -83 -21 -39 -23 11 -1 25
-3 30 -4 6 -1 15 -3 21 -4 24 -3 41 -75 37 -152 -8 -130 -56 -204 -193 -293
-113 -73 -203 -91 -301 -61 -27 9 -87 20 -134 26 -47 5 -107 20 -135 33 -65
30 -132 98 -175 177 -30 57 -35 75 -38 154 -3 88 -2 92 36 170 44 90 71 119
127 138 l40 14 -25 13 c-33 17 -100 81 -100 96 0 6 18 14 39 18 47 7 73 36 96
106 9 28 21 52 26 55 5 4 9 11 9 17 0 26 -31 -19 -51 -73 -28 -75 -45 -90
-116 -96 -57 -5 -60 -4 -86 27 -15 17 -27 42 -27 56 0 44 61 174 82 174 6 0
57 -11 115 -25z m5 -1015 c37 -28 65 -37 160 -50 45 -6 117 -21 158 -32 51
-14 90 -19 127 -15 57 6 64 0 34 -27 -31 -28 -33 -92 -5 -149 32 -63 45 -53
14 12 -29 62 -22 107 24 156 24 25 42 35 63 35 49 0 79 -48 123 -192 13 -43
33 -81 54 -104 47 -51 52 -28 7 31 -21 28 -40 64 -43 80 -9 48 -47 145 -70
175 -11 16 -30 31 -42 34 -20 6 -19 7 10 26 44 28 63 19 165 -81 66 -64 93
-100 117 -151 30 -63 32 -74 29 -165 l-2 -98 -138 -3 c-80 -1 -145 2 -156 8
-11 5 -41 49 -67 97 -26 48 -49 82 -52 75 -3 -11 14 -47 71 -141 l20 -34 -329
7 c-181 4 -330 9 -332 11 -2 1 2 54 9 116 11 119 32 179 69 199 11 6 20 16 20
22 0 21 -62 -46 -80 -87 -10 -22 -24 -88 -31 -147 l-13 -108 -118 0 c-136 0
-137 1 -141 97 -3 73 36 160 112 251 54 65 176 172 197 172 6 0 23 -9 36 -20z"/>
<path d="M1060 1369 c-7 -11 -9 -27 -6 -35 5 -12 -7 -13 -75 -8 l-80 7 -48
-50 c-58 -60 -85 -131 -85 -218 1 -93 59 -207 124 -240 55 -28 181 -49 305
-49 134 -1 170 11 232 76 48 50 64 98 64 192 1 143 -44 208 -164 241 -37 10
-64 22 -61 26 3 5 3 18 -1 28 -14 45 -72 29 -60 -17 5 -22 3 -24 -17 -18 -13
3 -41 6 -62 6 -38 0 -39 1 -22 19 22 24 13 61 -14 61 -11 0 -24 -9 -30 -21z
m14 -64 c55 -8 121 -15 147 -15 70 0 169 -34 207 -71 41 -40 55 -95 50 -196
-6 -106 -37 -161 -118 -207 -51 -29 -61 -31 -150 -30 -95 1 -202 15 -273 34
-53 15 -102 62 -133 128 -23 49 -26 65 -22 137 4 68 9 91 35 136 35 62 82 99
127 99 17 0 76 -7 130 -15z"/>
<path d="M1014 1241 c-148 -53 -207 -145 -160 -247 44 -95 97 -119 266 -119
108 0 167 21 215 78 20 23 40 58 47 78 22 74 -43 157 -161 206 -68 27 -138 29
-207 4z m190 -11 c169 -64 215 -181 109 -282 -15 -15 -48 -34 -72 -43 -51 -18
-196 -20 -271 -4 -47 10 -55 16 -86 65 -72 113 -22 210 139 265 68 24 114 23
181 -1z"/>
<path d="M936 1111 c-23 -26 -17 -52 17 -71 24 -13 30 -13 54 0 16 9 29 24 31
34 5 25 -27 56 -58 56 -15 0 -35 -9 -44 -19z m78 -7 c22 -21 20 -31 -9 -50
-23 -15 -27 -15 -50 0 -14 9 -25 21 -25 26 0 15 31 40 50 40 10 0 26 -7 34
-16z"/>
<path d="M995 1090 c-4 -6 -11 -7 -17 -4 -7 4 -8 2 -4 -5 6 -9 11 -9 22 0 14
11 18 19 10 19 -3 0 -8 -5 -11 -10z"/>
<path d="M1236 1044 c-22 -21 -20 -47 4 -69 19 -17 21 -17 40 0 25 23 26 61 1
75 -25 13 -27 13 -45 -6z m47 -24 c7 -28 -19 -48 -39 -28 -18 18 -8 48 16 48
10 0 20 -9 23 -20z"/>
<path d="M1260 1000 c-9 -6 -10 -10 -3 -10 6 0 15 5 18 10 8 12 4 12 -15 0z"/>
<path d="M4410 911 c0 -5 7 -11 15 -15 9 -3 15 -18 15 -39 0 -20 7 -40 16 -48
15 -12 16 -11 11 6 -3 11 -8 35 -12 53 -6 29 -45 67 -45 43z"/>
<path d="M4317 853 c-4 -3 -7 -18 -6 -32 1 -26 1 -25 10 3 9 31 7 41 -4 29z"/>
<path d="M2840 790 c-7 -14 -25 -41 -40 -60 -30 -38 -45 -66 -81 -147 -13 -32
-29 -53 -38 -53 -13 0 -13 -2 -2 -9 20 -13 6 -28 -34 -35 -19 -4 -35 -11 -35
-17 0 -5 11 -7 25 -3 26 6 33 -4 14 -23 -6 -6 -9 -19 -7 -29 2 -13 9 -6 22 22
15 30 25 40 40 38 12 -1 25 -3 29 -3 5 -1 5 -5 2 -11 -3 -5 15 -20 40 -32 37
-18 48 -20 54 -9 7 11 9 11 13 0 3 -9 6 -10 11 -2 10 15 -51 45 -76 37 -12 -4
-17 -2 -13 5 7 11 -48 44 -57 34 -4 -3 -3 7 2 23 14 49 71 156 113 212 21 29
38 61 36 70 -3 14 -6 12 -18 -8z"/>
<path d="M4311 668 c-1 -16 17 -64 40 -110 13 -26 12 -28 -16 -28 -15 0 -25
-6 -25 -14 0 -11 7 -13 28 -7 29 8 87 -3 97 -19 7 -12 25 -13 25 -2 0 4 -20
18 -45 30 -54 26 -58 42 -9 42 19 0 42 7 51 15 19 20 11 30 -14 17 -10 -6 -33
-12 -51 -15 -27 -5 -35 -2 -41 16 -23 60 -39 90 -40 75z"/>
<path d="M4661 595 c0 -5 8 -25 17 -43 11 -20 16 -46 14 -69 -4 -33 -9 -38
-66 -63 -64 -29 -129 -50 -236 -75 -36 -9 -69 -20 -74 -25 -21 -21 6 -21 63
-1 33 11 82 26 107 31 39 9 150 55 214 89 18 10 22 78 5 95 -7 6 -19 25 -28
41 -9 17 -16 26 -16 20z"/>
<path d="M4450 540 c0 -6 12 -10 27 -10 29 0 24 12 -7 17 -11 2 -20 -2 -20 -7z"/>
<path d="M770 246 c7 -7 13 -7 20 0 6 6 3 10 -10 10 -13 0 -16 -4 -10 -10z"/>
<path d="M4312 208 l1 -43 4 38 4 38 400 -3 c219 -2 399 0 399 5 0 4 -182 7
-405 7 l-405 0 2 -42z"/>
<path d="M4175 150 c-66 -4 -380 -8 -697 -9 -378 -1 -578 -4 -578 -11 0 -7
236 -10 688 -10 555 1 690 3 705 14 17 13 23 27 10 24 -5 -1 -62 -5 -128 -8z"/>
<path d="M2938 103 c7 -3 16 -2 19 1 4 3 -2 6 -13 5 -11 0 -14 -3 -6 -6z"/>
</g>
</svg>
